<?xml version="1.0" encoding="UTF-8" standalone="no"?>
<!DOCTYPE svg PUBLIC "-//W3C//DTD SVG 1.1//EN"
 "http://www.w3.org/Graphics/SVG/1.1/DTD/svg11.dtd">
<!-- Generated by graphviz version 2.42.4 (0)
 -->
<!-- Title: classes_homeassistant_core.py Pages: 1 -->
<svg width="6847pt" height="1766pt"
 viewBox="0.00 0.00 6846.50 1765.80" xmlns="http://www.w3.org/2000/svg" xmlns:xlink="http://www.w3.org/1999/xlink">
<g id="graph0" class="graph" transform="scale(1 1) rotate(0) translate(4 1761.8)">
<title>classes_homeassistant_core.py</title>
<polygon fill="white" stroke="transparent" points="-4,4 -4,-1761.8 6842.5,-1761.8 6842.5,4 -4,4"/>
<!-- homeassistant.core.CompressedState -->
<g id="node1" class="node">
<title>homeassistant.core.CompressedState</title>
<polygon fill="none" stroke="black" points="4944.5,-0.5 4944.5,-129.5 5146.5,-129.5 5146.5,-0.5 4944.5,-0.5"/>
<text text-anchor="start" x="4982" y="-114.3" font-family="Times,serif" font-size="14.00">CompressedState</text>
<polyline fill="none" stroke="black" points="4944.5,-106.5 5146.5,-106.5 "/>
<text text-anchor="start" x="4952.5" y="-91.3" font-family="Times,serif" font-size="14.00">a : ReadOnlyDict[str, Any]</text>
<text text-anchor="start" x="4952.5" y="-76.3" font-family="Times,serif" font-size="14.00">c : str | dict[str, Any]</text>
<text text-anchor="start" x="4952.5" y="-61.3" font-family="Times,serif" font-size="14.00">lc : float</text>
<text text-anchor="start" x="4952.5" y="-46.3" font-family="Times,serif" font-size="14.00">lu : NotRequired[float]</text>
<text text-anchor="start" x="4952.5" y="-31.3" font-family="Times,serif" font-size="14.00">s : str</text>
<polyline fill="none" stroke="black" points="4944.5,-23.5 5146.5,-23.5 "/>
<text text-anchor="start" x="5043" y="-8.3" font-family="Times,serif" font-size="14.00"> </text>
</g>
<!-- homeassistant.core.ConfigSource -->
<g id="node2" class="node">
<title>homeassistant.core.ConfigSource</title>
<polygon fill="none" stroke="black" points="5164.5,-30.5 5164.5,-99.5 5276.5,-99.5 5276.5,-30.5 5164.5,-30.5"/>
<text text-anchor="start" x="5172.5" y="-84.3" font-family="Times,serif" font-size="14.00">ConfigSource</text>
<polyline fill="none" stroke="black" points="5164.5,-76.5 5276.5,-76.5 "/>
<text text-anchor="start" x="5200.5" y="-61.3" font-family="Times,serif" font-size="14.00">name</text>
<polyline fill="none" stroke="black" points="5164.5,-53.5 5276.5,-53.5 "/>
<text text-anchor="start" x="5218" y="-38.3" font-family="Times,serif" font-size="14.00"> </text>
</g>
<!-- homeassistant.core.Context -->
<g id="node3" class="node">
<title>homeassistant.core.Context</title>
<polygon fill="none" stroke="black" points="5067,-731.8 5067,-860.8 5360,-860.8 5360,-731.8 5067,-731.8"/>
<text text-anchor="start" x="5185" y="-845.6" font-family="Times,serif" font-size="14.00">Context</text>
<polyline fill="none" stroke="black" points="5067,-837.8 5360,-837.8 "/>
<text text-anchor="start" x="5097" y="-822.6" font-family="Times,serif" font-size="14.00">id</text>
<text text-anchor="start" x="5097" y="-807.6" font-family="Times,serif" font-size="14.00">origin_event : Event[Any] | None</text>
<text text-anchor="start" x="5097" y="-792.6" font-family="Times,serif" font-size="14.00">parent_id : str | None</text>
<text text-anchor="start" x="5097" y="-777.6" font-family="Times,serif" font-size="14.00">user_id : str | None</text>
<polyline fill="none" stroke="black" points="5067,-769.8 5360,-769.8 "/>
<text text-anchor="start" x="5075" y="-754.6" font-family="Times,serif" font-size="14.00">as_dict(): ReadOnlyDict[str, str | None]</text>
<text text-anchor="start" x="5075" y="-739.6" font-family="Times,serif" font-size="14.00">json_fragment(): json_fragment</text>
</g>
<!-- homeassistant.core.ServiceCall -->
<g id="node17" class="node">
<title>homeassistant.core.ServiceCall</title>
<polygon fill="none" stroke="black" points="4756,-1250.3 4756,-1394.3 4933,-1394.3 4933,-1250.3 4756,-1250.3"/>
<text text-anchor="start" x="4803.5" y="-1379.1" font-family="Times,serif" font-size="14.00">ServiceCall</text>
<polyline fill="none" stroke="black" points="4756,-1371.3 4933,-1371.3 "/>
<text text-anchor="start" x="4764" y="-1356.1" font-family="Times,serif" font-size="14.00">context</text>
<text text-anchor="start" x="4764" y="-1341.1" font-family="Times,serif" font-size="14.00">data : ReadOnlyDict</text>
<text text-anchor="start" x="4764" y="-1326.1" font-family="Times,serif" font-size="14.00">domain : str</text>
<text text-anchor="start" x="4764" y="-1311.1" font-family="Times,serif" font-size="14.00">hass</text>
<text text-anchor="start" x="4764" y="-1296.1" font-family="Times,serif" font-size="14.00">return_response : bool</text>
<text text-anchor="start" x="4764" y="-1281.1" font-family="Times,serif" font-size="14.00">service : str</text>
<polyline fill="none" stroke="black" points="4756,-1273.3 4933,-1273.3 "/>
<text text-anchor="start" x="4842" y="-1258.1" font-family="Times,serif" font-size="14.00"> </text>
</g>
<!-- homeassistant.core.Context&#45;&gt;homeassistant.core.ServiceCall -->
<g id="edge3" class="edge">
<title>homeassistant.core.Context&#45;&gt;homeassistant.core.ServiceCall</title>
<path fill="none" stroke="black" d="M5168.62,-861.03C5101.55,-956.28 4975.17,-1135.74 4901.61,-1240.21"/>
<polygon fill="black" stroke="black" points="4901.56,-1240.27 4901.38,-1247.48 4894.65,-1250.08 4894.84,-1242.87 4901.56,-1240.27"/>
<text text-anchor="middle" x="5012.5" y="-1115.6" font-family="Times,serif" font-size="14.00" fill="green">context</text>
</g>
<!-- homeassistant.core.State -->
<g id="node19" class="node">
<title>homeassistant.core.State</title>
<polygon fill="none" stroke="black" points="4982.5,-1145.3 4982.5,-1499.3 5458.5,-1499.3 5458.5,-1145.3 4982.5,-1145.3"/>
<text text-anchor="start" x="5201" y="-1484.1" font-family="Times,serif" font-size="14.00">State</text>
<polyline fill="none" stroke="black" points="4982.5,-1476.3 5458.5,-1476.3 "/>
<text text-anchor="start" x="5085" y="-1461.1" font-family="Times,serif" font-size="14.00">attributes : ReadOnlyDict[str, Any]</text>
<text text-anchor="start" x="5085" y="-1446.1" font-family="Times,serif" font-size="14.00">context</text>
<text text-anchor="start" x="5085" y="-1431.1" font-family="Times,serif" font-size="14.00">domain : str</text>
<text text-anchor="start" x="5085" y="-1416.1" font-family="Times,serif" font-size="14.00">entity_id : str</text>
<text text-anchor="start" x="5085" y="-1401.1" font-family="Times,serif" font-size="14.00">last_changed : datetime</text>
<text text-anchor="start" x="5085" y="-1386.1" font-family="Times,serif" font-size="14.00">last_reported : datetime</text>
<text text-anchor="start" x="5085" y="-1371.1" font-family="Times,serif" font-size="14.00">last_updated : datetime</text>
<text text-anchor="start" x="5085" y="-1356.1" font-family="Times,serif" font-size="14.00">last_updated_timestamp : float | None</text>
<text text-anchor="start" x="5085" y="-1341.1" font-family="Times,serif" font-size="14.00">object_id : str</text>
<text text-anchor="start" x="5085" y="-1326.1" font-family="Times,serif" font-size="14.00">state : str</text>
<text text-anchor="start" x="5085" y="-1311.1" font-family="Times,serif" font-size="14.00">state_info : StateInfo | None</text>
<polyline fill="none" stroke="black" points="4982.5,-1303.3 5458.5,-1303.3 "/>
<text text-anchor="start" x="4990.5" y="-1288.1" font-family="Times,serif" font-size="14.00">as_compressed_state(): CompressedState</text>
<text text-anchor="start" x="4990.5" y="-1273.1" font-family="Times,serif" font-size="14.00">as_compressed_state_json(): bytes</text>
<text text-anchor="start" x="4990.5" y="-1258.1" font-family="Times,serif" font-size="14.00">as_dict(): ReadOnlyDict[str, datetime.datetime | Collection[Any]]</text>
<text text-anchor="start" x="4990.5" y="-1243.1" font-family="Times,serif" font-size="14.00">as_dict_json(): bytes</text>
<text text-anchor="start" x="4990.5" y="-1228.1" font-family="Times,serif" font-size="14.00">expire(): None</text>
<text text-anchor="start" x="4990.5" y="-1213.1" font-family="Times,serif" font-size="14.00">from_dict(json_dict: dict[str, Any]): Self | None</text>
<text text-anchor="start" x="4990.5" y="-1198.1" font-family="Times,serif" font-size="14.00">json_fragment(): json_fragment</text>
<text text-anchor="start" x="4990.5" y="-1183.1" font-family="Times,serif" font-size="14.00">last_changed_timestamp(): float</text>
<text text-anchor="start" x="4990.5" y="-1168.1" font-family="Times,serif" font-size="14.00">last_reported_timestamp(): float</text>
<text text-anchor="start" x="4990.5" y="-1153.1" font-family="Times,serif" font-size="14.00">name(): str</text>
</g>
<!-- homeassistant.core.Context&#45;&gt;homeassistant.core.State -->
<g id="edge4" class="edge">
<title>homeassistant.core.Context&#45;&gt;homeassistant.core.State</title>
<path fill="none" stroke="black" d="M5197.48,-861.08C5182.83,-927.45 5164.95,-1034.4 5175.5,-1126.8 5175.74,-1128.87 5175.99,-1130.95 5176.25,-1133.04"/>
<polygon fill="black" stroke="black" points="5176.27,-1133.2 5181.05,-1138.61 5177.89,-1145.09 5173.12,-1139.69 5176.27,-1133.2"/>
<text text-anchor="middle" x="5202.5" y="-1115.6" font-family="Times,serif" font-size="14.00" fill="green">context</text>
</g>
<!-- homeassistant.core.Context&#45;&gt;homeassistant.core.State -->
<g id="edge5" class="edge">
<title>homeassistant.core.Context&#45;&gt;homeassistant.core.State</title>
<path fill="none" stroke="black" d="M5219.31,-861.05C5224.71,-927.4 5231.64,-1034.33 5229.5,-1126.8 5229.45,-1128.86 5229.4,-1130.94 5229.35,-1133.02"/>
<polygon fill="black" stroke="black" points="5229.35,-1133.07 5233.18,-1139.17 5229.02,-1145.06 5225.18,-1138.95 5229.35,-1133.07"/>
<text text-anchor="middle" x="5257.5" y="-1115.6" font-family="Times,serif" font-size="14.00" fill="green">context</text>
</g>
<!-- homeassistant.core.CoreState -->
<g id="node4" class="node">
<title>homeassistant.core.CoreState</title>
<polygon fill="none" stroke="black" points="5100,-279.9 5100,-348.9 5189,-348.9 5189,-279.9 5100,-279.9"/>
<text text-anchor="start" x="5108" y="-333.7" font-family="Times,serif" font-size="14.00">CoreState</text>
<polyline fill="none" stroke="black" points="5100,-325.9 5189,-325.9 "/>
<text text-anchor="start" x="5124.5" y="-310.7" font-family="Times,serif" font-size="14.00">name</text>
<polyline fill="none" stroke="black" points="5100,-302.9 5189,-302.9 "/>
<text text-anchor="start" x="5142" y="-287.7" font-family="Times,serif" font-size="14.00"> </text>
</g>
<!-- homeassistant.core.HomeAssistant -->
<g id="node14" class="node">
<title>homeassistant.core.HomeAssistant</title>
<polygon fill="none" stroke="black" points="4009,-499.3 4009,-1093.3 4832,-1093.3 4832,-499.3 4009,-499.3"/>
<text text-anchor="start" x="4366" y="-1078.1" font-family="Times,serif" font-size="14.00">HomeAssistant</text>
<polyline fill="none" stroke="black" points="4009,-1070.3 4832,-1070.3 "/>
<text text-anchor="start" x="4236.5" y="-1055.1" font-family="Times,serif" font-size="14.00">auth : AuthManager</text>
<text text-anchor="start" x="4236.5" y="-1040.1" font-family="Times,serif" font-size="14.00">bus</text>
<text text-anchor="start" x="4236.5" y="-1025.1" font-family="Times,serif" font-size="14.00">config : Config</text>
<text text-anchor="start" x="4236.5" y="-1010.1" font-family="Times,serif" font-size="14.00">config_entries : Optional[ConfigEntries]</text>
<text text-anchor="start" x="4236.5" y="-995.1" font-family="Times,serif" font-size="14.00">data : dict</text>
<text text-anchor="start" x="4236.5" y="-980.1" font-family="Times,serif" font-size="14.00">exit_code : int</text>
<text text-anchor="start" x="4236.5" y="-965.1" font-family="Times,serif" font-size="14.00">http : Optional[HomeAssistantHTTP]</text>
<text text-anchor="start" x="4236.5" y="-950.1" font-family="Times,serif" font-size="14.00">import_executor : InterruptibleThreadPoolExecutor</text>
<text text-anchor="start" x="4236.5" y="-935.1" font-family="Times,serif" font-size="14.00">is_running</text>
<text text-anchor="start" x="4236.5" y="-920.1" font-family="Times,serif" font-size="14.00">is_stopping</text>
<text text-anchor="start" x="4236.5" y="-905.1" font-family="Times,serif" font-size="14.00">loop</text>
<text text-anchor="start" x="4236.5" y="-890.1" font-family="Times,serif" font-size="14.00">loop_thread_id</text>
<text text-anchor="start" x="4236.5" y="-875.1" font-family="Times,serif" font-size="14.00">services</text>
<text text-anchor="start" x="4236.5" y="-860.1" font-family="Times,serif" font-size="14.00">state</text>
<text text-anchor="start" x="4236.5" y="-845.1" font-family="Times,serif" font-size="14.00">states</text>
<text text-anchor="start" x="4236.5" y="-830.1" font-family="Times,serif" font-size="14.00">timeout : TimeoutManager</text>
<polyline fill="none" stroke="black" points="4009,-822.3 4832,-822.3 "/>
<text text-anchor="start" x="4017" y="-807.1" font-family="Times,serif" font-size="14.00">add_job(target: Callable[[*_Ts], Any] | Coroutine[Any, Any, Any]): None</text>
<text text-anchor="start" x="4017" y="-792.1" font-family="Times,serif" font-size="14.00">async_add_executor_job(target: Callable[[*_Ts], _T]): asyncio.Future[_T]</text>
<text text-anchor="start" x="4017" y="-777.1" font-family="Times,serif" font-size="14.00">async_add_hass_job(hassjob: HassJob[..., Coroutine[Any, Any, _R]]): asyncio.Future[_R] | None</text>
<text text-anchor="start" x="4017" y="-762.1" font-family="Times,serif" font-size="14.00">async_add_import_executor_job(target: Callable[[*_Ts], _T]): asyncio.Future[_T]</text>
<text text-anchor="start" x="4017" y="-747.1" font-family="Times,serif" font-size="14.00">async_add_job(target: Callable[[*_Ts], Coroutine[Any, Any, _R]]): asyncio.Future[_R] | None</text>
<text text-anchor="start" x="4017" y="-732.1" font-family="Times,serif" font-size="14.00">async_add_shutdown_job(hassjob: HassJob[..., Coroutine[Any, Any, Any]]): CALLBACK_TYPE</text>
<text text-anchor="start" x="4017" y="-717.1" font-family="Times,serif" font-size="14.00">async_block_till_done(wait_background_tasks: bool): None</text>
<text text-anchor="start" x="4017" y="-702.1" font-family="Times,serif" font-size="14.00">async_create_background_task(target: Coroutine[Any, Any, _R], name: str, eager_start: bool): asyncio.Task[_R]</text>
<text text-anchor="start" x="4017" y="-687.1" font-family="Times,serif" font-size="14.00">async_create_task(target: Coroutine[Any, Any, _R], name: str | None, eager_start: bool): asyncio.Task[_R]</text>
<text text-anchor="start" x="4017" y="-672.1" font-family="Times,serif" font-size="14.00">async_create_task_internal(target: Coroutine[Any, Any, _R], name: str | None, eager_start: bool): asyncio.Task[_R]</text>
<text text-anchor="start" x="4017" y="-657.1" font-family="Times,serif" font-size="14.00">async_run(): int</text>
<text text-anchor="start" x="4017" y="-642.1" font-family="Times,serif" font-size="14.00">async_run_hass_job(hassjob: HassJob[..., Coroutine[Any, Any, _R]]): asyncio.Future[_R] | None</text>
<text text-anchor="start" x="4017" y="-627.1" font-family="Times,serif" font-size="14.00">async_run_job(target: Callable[[*_Ts], Coroutine[Any, Any, _R]]): asyncio.Future[_R] | None</text>
<text text-anchor="start" x="4017" y="-612.1" font-family="Times,serif" font-size="14.00">async_start(): None</text>
<text text-anchor="start" x="4017" y="-597.1" font-family="Times,serif" font-size="14.00">async_stop(exit_code: int): None</text>
<text text-anchor="start" x="4017" y="-582.1" font-family="Times,serif" font-size="14.00">block_till_done(wait_background_tasks: bool): None</text>
<text text-anchor="start" x="4017" y="-567.1" font-family="Times,serif" font-size="14.00">create_task(target: Coroutine[Any, Any, Any], name: str | None): None</text>
<text text-anchor="start" x="4017" y="-552.1" font-family="Times,serif" font-size="14.00">set_state(state: CoreState): None</text>
<text text-anchor="start" x="4017" y="-537.1" font-family="Times,serif" font-size="14.00">start(): int</text>
<text text-anchor="start" x="4017" y="-522.1" font-family="Times,serif" font-size="14.00">stop(): None</text>
<text text-anchor="start" x="4017" y="-507.1" font-family="Times,serif" font-size="14.00">verify_event_loop_thread(what: str): None</text>
</g>
<!-- homeassistant.core.CoreState&#45;&gt;homeassistant.core.HomeAssistant -->
<g id="edge6" class="edge">
<title>homeassistant.core.CoreState&#45;&gt;homeassistant.core.HomeAssistant</title>
<path fill="none" stroke="black" d="M5137.67,-349.11C5130.3,-378.21 5116.02,-419.84 5090.5,-447.8 5021.89,-522.98 4933.23,-584.52 4843.01,-633.79"/>
<polygon fill="black" stroke="black" points="4842.84,-633.88 4839.46,-640.25 4832.28,-639.59 4835.66,-633.22 4842.84,-633.88"/>
<text text-anchor="middle" x="5081" y="-469.6" font-family="Times,serif" font-size="14.00" fill="green">state</text>
</g>
<!-- homeassistant.core.Event -->
<g id="node5" class="node">
<title>homeassistant.core.Event</title>
<polygon fill="none" stroke="black" points="5207.5,-234.9 5207.5,-393.9 5485.5,-393.9 5485.5,-234.9 5207.5,-234.9"/>
<text text-anchor="start" x="5325" y="-378.7" font-family="Times,serif" font-size="14.00">Event</text>
<polyline fill="none" stroke="black" points="5207.5,-370.9 5485.5,-370.9 "/>
<text text-anchor="start" x="5215.5" y="-355.7" font-family="Times,serif" font-size="14.00">context : Context | None</text>
<text text-anchor="start" x="5215.5" y="-340.7" font-family="Times,serif" font-size="14.00">data : _DataT</text>
<text text-anchor="start" x="5215.5" y="-325.7" font-family="Times,serif" font-size="14.00">event_type : EventType[_DataT] | str</text>
<text text-anchor="start" x="5215.5" y="-310.7" font-family="Times,serif" font-size="14.00">origin</text>
<text text-anchor="start" x="5215.5" y="-295.7" font-family="Times,serif" font-size="14.00">time_fired_timestamp</text>
<polyline fill="none" stroke="black" points="5207.5,-287.9 5485.5,-287.9 "/>
<text text-anchor="start" x="5230" y="-272.7" font-family="Times,serif" font-size="14.00">as_dict(): ReadOnlyDict[str, Any]</text>
<text text-anchor="start" x="5230" y="-257.7" font-family="Times,serif" font-size="14.00">json_fragment(): json_fragment</text>
<text text-anchor="start" x="5230" y="-242.7" font-family="Times,serif" font-size="14.00">time_fired(): datetime.datetime</text>
</g>
<!-- homeassistant.core.Event&#45;&gt;homeassistant.core.Context -->
<g id="edge13" class="edge">
<title>homeassistant.core.Event&#45;&gt;homeassistant.core.Context</title>
<path fill="none" stroke="black" d="M5324.69,-394.11C5299.68,-484.32 5259,-631.14 5234.39,-719.93"/>
<polygon fill="none" stroke="black" points="5234.38,-719.96 5236.63,-726.81 5231.17,-731.53 5228.92,-724.67 5234.38,-719.96"/>
<text text-anchor="middle" x="5348" y="-469.6" font-family="Times,serif" font-size="14.00" fill="green">origin_event</text>
</g>
<!-- homeassistant.core.EventBus -->
<g id="node6" class="node">
<title>homeassistant.core.EventBus</title>
<polygon fill="none" stroke="black" points="0,-227.4 0,-401.4 1545,-401.4 1545,-227.4 0,-227.4"/>
<text text-anchor="start" x="737.5" y="-386.2" font-family="Times,serif" font-size="14.00">EventBus</text>
<polyline fill="none" stroke="black" points="0,-378.4 1545,-378.4 "/>
<text text-anchor="start" x="741" y="-363.2" font-family="Times,serif" font-size="14.00">listeners</text>
<polyline fill="none" stroke="black" points="0,-355.4 1545,-355.4 "/>
<text text-anchor="start" x="8" y="-340.2" font-family="Times,serif" font-size="14.00">async_fire(event_type: EventType[_DataT] | str, event_data: _DataT | None, origin: EventOrigin, context: Context | None, time_fired: float | None): None</text>
<text text-anchor="start" x="8" y="-325.2" font-family="Times,serif" font-size="14.00">async_fire_internal(event_type: EventType[_DataT] | str, event_data: _DataT | None, origin: EventOrigin, context: Context | None, time_fired: float | None): None</text>
<text text-anchor="start" x="8" y="-310.2" font-family="Times,serif" font-size="14.00">async_listen(event_type: EventType[_DataT] | str, listener: Callable[[Event[_DataT]], Coroutine[Any, Any, None] | None], event_filter: Callable[[_DataT], bool] | None, run_immediately: bool | object): CALLBACK_TYPE</text>
<text text-anchor="start" x="8" y="-295.2" font-family="Times,serif" font-size="14.00">async_listen_once(event_type: EventType[_DataT] | str, listener: Callable[[Event[_DataT]], Coroutine[Any, Any, None] | None], run_immediately: bool | object): CALLBACK_TYPE</text>
<text text-anchor="start" x="8" y="-280.2" font-family="Times,serif" font-size="14.00">async_listeners()</text>
<text text-anchor="start" x="8" y="-265.2" font-family="Times,serif" font-size="14.00">fire(event_type: EventType[_DataT] | str, event_data: _DataT | None, origin: EventOrigin, context: Context | None): None</text>
<text text-anchor="start" x="8" y="-250.2" font-family="Times,serif" font-size="14.00">listen(event_type: EventType[_DataT] | str, listener: Callable[[Event[_DataT]], Coroutine[Any, Any, None] | None]): CALLBACK_TYPE</text>
<text text-anchor="start" x="8" y="-235.2" font-family="Times,serif" font-size="14.00">listen_once(event_type: EventType[_DataT] | str, listener: Callable[[Event[_DataT]], Coroutine[Any, Any, None] | None]): CALLBACK_TYPE</text>
</g>
<!-- homeassistant.core.EventBus&#45;&gt;homeassistant.core.HomeAssistant -->
<g id="edge7" class="edge">
<title>homeassistant.core.EventBus&#45;&gt;homeassistant.core.HomeAssistant</title>
<path fill="none" stroke="black" d="M1258.96,-401.41C1356.7,-417.66 1458.77,-433.9 1554.5,-447.8 2419.7,-573.43 3436.45,-689.19 3996.54,-750.21"/>
<polygon fill="black" stroke="black" points="3996.93,-750.25 4003.33,-746.92 4008.86,-751.55 4002.46,-754.87 3996.93,-750.25"/>
<text text-anchor="middle" x="1799.5" y="-469.6" font-family="Times,serif" font-size="14.00" fill="green">bus</text>
</g>
<!-- homeassistant.core.EventOrigin -->
<g id="node7" class="node">
<title>homeassistant.core.EventOrigin</title>
<polygon fill="none" stroke="black" points="5294.5,-23 5294.5,-107 5398.5,-107 5398.5,-23 5294.5,-23"/>
<text text-anchor="start" x="5302.5" y="-91.8" font-family="Times,serif" font-size="14.00">EventOrigin</text>
<polyline fill="none" stroke="black" points="5294.5,-84 5398.5,-84 "/>
<text text-anchor="start" x="5326.5" y="-68.8" font-family="Times,serif" font-size="14.00">idx</text>
<text text-anchor="start" x="5326.5" y="-53.8" font-family="Times,serif" font-size="14.00">name</text>
<polyline fill="none" stroke="black" points="5294.5,-46 5398.5,-46 "/>
<text text-anchor="start" x="5344" y="-30.8" font-family="Times,serif" font-size="14.00"> </text>
</g>
<!-- homeassistant.core.EventOrigin&#45;&gt;homeassistant.core.Event -->
<g id="edge14" class="edge">
<title>homeassistant.core.EventOrigin&#45;&gt;homeassistant.core.Event</title>
<path fill="none" stroke="black" d="M5346.5,-107.13C5346.5,-138.57 5346.5,-183.11 5346.5,-222.76"/>
<polygon fill="none" stroke="black" points="5346.5,-222.89 5350.5,-228.89 5346.5,-234.89 5342.5,-228.89 5346.5,-222.89"/>
<text text-anchor="middle" x="5368" y="-151.8" font-family="Times,serif" font-size="14.00" fill="green">origin</text>
</g>
<!-- homeassistant.core.EventStateChangedData -->
<g id="node8" class="node">
<title>homeassistant.core.EventStateChangedData</title>
<polygon fill="none" stroke="black" points="4899.5,-1558.8 4899.5,-1642.8 5093.5,-1642.8 5093.5,-1558.8 4899.5,-1558.8"/>
<text text-anchor="start" x="4907.5" y="-1627.6" font-family="Times,serif" font-size="14.00">EventStateChangedData</text>
<polyline fill="none" stroke="black" points="4899.5,-1619.8 5093.5,-1619.8 "/>
<text text-anchor="start" x="4909" y="-1604.6" font-family="Times,serif" font-size="14.00">new_state : State | None</text>
<text text-anchor="start" x="4909" y="-1589.6" font-family="Times,serif" font-size="14.00">old_state : State | None</text>
<polyline fill="none" stroke="black" points="4899.5,-1581.8 5093.5,-1581.8 "/>
<text text-anchor="start" x="4994" y="-1566.6" font-family="Times,serif" font-size="14.00"> </text>
</g>
<!-- homeassistant.core.EventStateEventData -->
<g id="node9" class="node">
<title>homeassistant.core.EventStateEventData</title>
<polygon fill="none" stroke="black" points="4922,-1688.3 4922,-1757.3 5095,-1757.3 5095,-1688.3 4922,-1688.3"/>
<text text-anchor="start" x="4930" y="-1742.1" font-family="Times,serif" font-size="14.00">EventStateEventData</text>
<polyline fill="none" stroke="black" points="4922,-1734.3 5095,-1734.3 "/>
<text text-anchor="start" x="4960" y="-1719.1" font-family="Times,serif" font-size="14.00">entity_id : str</text>
<polyline fill="none" stroke="black" points="4922,-1711.3 5095,-1711.3 "/>
<text text-anchor="start" x="5006" y="-1696.1" font-family="Times,serif" font-size="14.00"> </text>
</g>
<!-- homeassistant.core.EventStateChangedData&#45;&gt;homeassistant.core.EventStateEventData -->
<g id="edge1" class="edge">
<title>homeassistant.core.EventStateChangedData&#45;&gt;homeassistant.core.EventStateEventData</title>
<path fill="none" stroke="black" d="M5000.63,-1643.1C5001.75,-1654.31 5002.97,-1666.49 5004.1,-1677.84"/>
<polygon fill="none" stroke="black" points="5000.64,-1678.38 5005.12,-1687.98 5007.61,-1677.69 5000.64,-1678.38"/>
</g>
<!-- homeassistant.core.EventStateReportedData -->
<g id="node10" class="node">
<title>homeassistant.core.EventStateReportedData</title>
<polygon fill="none" stroke="black" points="5111.5,-1551.3 5111.5,-1650.3 5329.5,-1650.3 5329.5,-1551.3 5111.5,-1551.3"/>
<text text-anchor="start" x="5130" y="-1635.1" font-family="Times,serif" font-size="14.00">EventStateReportedData</text>
<polyline fill="none" stroke="black" points="5111.5,-1627.3 5329.5,-1627.3 "/>
<text text-anchor="start" x="5119.5" y="-1612.1" font-family="Times,serif" font-size="14.00">last_reported : datetime</text>
<text text-anchor="start" x="5119.5" y="-1597.1" font-family="Times,serif" font-size="14.00">new_state</text>
<text text-anchor="start" x="5119.5" y="-1582.1" font-family="Times,serif" font-size="14.00">old_last_reported : datetime</text>
<polyline fill="none" stroke="black" points="5111.5,-1574.3 5329.5,-1574.3 "/>
<text text-anchor="start" x="5218" y="-1559.1" font-family="Times,serif" font-size="14.00"> </text>
</g>
<!-- homeassistant.core.EventStateReportedData&#45;&gt;homeassistant.core.EventStateEventData -->
<g id="edge2" class="edge">
<title>homeassistant.core.EventStateReportedData&#45;&gt;homeassistant.core.EventStateEventData</title>
<path fill="none" stroke="black" d="M5134.58,-1650.44C5115.34,-1661.32 5095.19,-1672.73 5076.79,-1683.15"/>
<polygon fill="none" stroke="black" points="5074.88,-1680.2 5067.9,-1688.17 5078.33,-1686.29 5074.88,-1680.2"/>
</g>
<!-- homeassistant.core.HassJob -->
<g id="node11" class="node">
<title>homeassistant.core.HassJob</title>
<polygon fill="none" stroke="black" points="5416.5,-15.5 5416.5,-114.5 5604.5,-114.5 5604.5,-15.5 5416.5,-15.5"/>
<text text-anchor="start" x="5481.5" y="-99.3" font-family="Times,serif" font-size="14.00">HassJob</text>
<polyline fill="none" stroke="black" points="5416.5,-91.5 5604.5,-91.5 "/>
<text text-anchor="start" x="5437.5" y="-76.3" font-family="Times,serif" font-size="14.00">cancel_on_shutdown</text>
<text text-anchor="start" x="5437.5" y="-61.3" font-family="Times,serif" font-size="14.00">name : str | None</text>
<text text-anchor="start" x="5437.5" y="-46.3" font-family="Times,serif" font-size="14.00">target</text>
<polyline fill="none" stroke="black" points="5416.5,-38.5 5604.5,-38.5 "/>
<text text-anchor="start" x="5424.5" y="-23.3" font-family="Times,serif" font-size="14.00">job_type(): HassJobType</text>
</g>
<!-- homeassistant.core.Service -->
<g id="node16" class="node">
<title>homeassistant.core.Service</title>
<polygon fill="none" stroke="black" points="5538.5,-264.9 5538.5,-363.9 5786.5,-363.9 5786.5,-264.9 5538.5,-264.9"/>
<text text-anchor="start" x="5635.5" y="-348.7" font-family="Times,serif" font-size="14.00">Service</text>
<polyline fill="none" stroke="black" points="5538.5,-340.9 5786.5,-340.9 "/>
<text text-anchor="start" x="5546.5" y="-325.7" font-family="Times,serif" font-size="14.00">job</text>
<text text-anchor="start" x="5546.5" y="-310.7" font-family="Times,serif" font-size="14.00">schema : VolSchemaType | None</text>
<text text-anchor="start" x="5546.5" y="-295.7" font-family="Times,serif" font-size="14.00">supports_response</text>
<polyline fill="none" stroke="black" points="5538.5,-287.9 5786.5,-287.9 "/>
<text text-anchor="start" x="5660" y="-272.7" font-family="Times,serif" font-size="14.00"> </text>
</g>
<!-- homeassistant.core.HassJob&#45;&gt;homeassistant.core.Service -->
<g id="edge8" class="edge">
<title>homeassistant.core.HassJob&#45;&gt;homeassistant.core.Service</title>
<path fill="none" stroke="black" d="M5540.35,-114.58C5564.95,-154.62 5599.93,-211.56 5626.16,-254.25"/>
<polygon fill="black" stroke="black" points="5626.18,-254.28 5632.73,-257.3 5632.46,-264.51 5625.91,-261.49 5626.18,-254.28"/>
<text text-anchor="middle" x="5579.5" y="-151.8" font-family="Times,serif" font-size="14.00" fill="green">job</text>
</g>
<!-- homeassistant.core.HassJobType -->
<g id="node12" class="node">
<title>homeassistant.core.HassJobType</title>
<polygon fill="none" stroke="black" points="5791,-30.5 5791,-99.5 5900,-99.5 5900,-30.5 5791,-30.5"/>
<text text-anchor="start" x="5799" y="-84.3" font-family="Times,serif" font-size="14.00">HassJobType</text>
<polyline fill="none" stroke="black" points="5791,-76.5 5900,-76.5 "/>
<text text-anchor="start" x="5825.5" y="-61.3" font-family="Times,serif" font-size="14.00">name</text>
<polyline fill="none" stroke="black" points="5791,-53.5 5900,-53.5 "/>
<text text-anchor="start" x="5843" y="-38.3" font-family="Times,serif" font-size="14.00"> </text>
</g>
<!-- homeassistant.core.HassJobWithArgs -->
<g id="node13" class="node">
<title>homeassistant.core.HassJobWithArgs</title>
<polygon fill="none" stroke="black" points="5918,-23 5918,-107 6277,-107 6277,-23 5918,-23"/>
<text text-anchor="start" x="6035" y="-91.8" font-family="Times,serif" font-size="14.00">HassJobWithArgs</text>
<polyline fill="none" stroke="black" points="5918,-84 6277,-84 "/>
<text text-anchor="start" x="5926" y="-68.8" font-family="Times,serif" font-size="14.00">args : Iterable[Any]</text>
<text text-anchor="start" x="5926" y="-53.8" font-family="Times,serif" font-size="14.00">job : HassJob[..., Coroutine[Any, Any, Any] | Any]</text>
<polyline fill="none" stroke="black" points="5918,-46 6277,-46 "/>
<text text-anchor="start" x="6095" y="-30.8" font-family="Times,serif" font-size="14.00"> </text>
</g>
<!-- homeassistant.core.HomeAssistant&#45;&gt;homeassistant.core.ServiceCall -->
<g id="edge15" class="edge">
<title>homeassistant.core.HomeAssistant&#45;&gt;homeassistant.core.ServiceCall</title>
<path fill="none" stroke="black" d="M4673.24,-1093.35C4687.32,-1110.66 4701.15,-1127.9 4714.5,-1144.8 4738.66,-1175.39 4764.3,-1209.75 4786.36,-1239.98"/>
<polygon fill="none" stroke="black" points="4786.64,-1240.35 4793.4,-1242.85 4793.7,-1250.05 4786.93,-1247.56 4786.64,-1240.35"/>
<text text-anchor="middle" x="4716" y="-1115.6" font-family="Times,serif" font-size="14.00" fill="green">hass</text>
</g>
<!-- homeassistant.core._Hass -->
<g id="node23" class="node">
<title>homeassistant.core._Hass</title>
<polygon fill="none" stroke="black" points="3926,-1287.8 3926,-1356.8 4147,-1356.8 4147,-1287.8 3926,-1287.8"/>
<text text-anchor="start" x="4015" y="-1341.6" font-family="Times,serif" font-size="14.00">_Hass</text>
<polyline fill="none" stroke="black" points="3926,-1333.8 4147,-1333.8 "/>
<text text-anchor="start" x="3934" y="-1318.6" font-family="Times,serif" font-size="14.00">hass : HomeAssistant | None</text>
<polyline fill="none" stroke="black" points="3926,-1310.8 4147,-1310.8 "/>
<text text-anchor="start" x="4034" y="-1295.6" font-family="Times,serif" font-size="14.00"> </text>
</g>
<!-- homeassistant.core.HomeAssistant&#45;&gt;homeassistant.core._Hass -->
<g id="edge16" class="edge">
<title>homeassistant.core.HomeAssistant&#45;&gt;homeassistant.core._Hass</title>
<path fill="none" stroke="black" d="M4193.71,-1093.67C4181.03,-1110.91 4168.55,-1128.04 4156.5,-1144.8 4124.41,-1189.43 4089.21,-1241.61 4065.29,-1277.6"/>
<polygon fill="none" stroke="black" points="4065.18,-1277.76 4065.19,-1284.97 4058.54,-1287.76 4058.53,-1280.55 4065.18,-1277.76"/>
<text text-anchor="middle" x="4194" y="-1115.6" font-family="Times,serif" font-size="14.00" fill="green">hass</text>
</g>
<!-- homeassistant.core._OneTimeListener -->
<g id="node24" class="node">
<title>homeassistant.core._OneTimeListener</title>
<polygon fill="none" stroke="black" points="4165.5,-1272.8 4165.5,-1371.8 4705.5,-1371.8 4705.5,-1272.8 4165.5,-1272.8"/>
<text text-anchor="start" x="4370.5" y="-1356.6" font-family="Times,serif" font-size="14.00">_OneTimeListener</text>
<polyline fill="none" stroke="black" points="4165.5,-1348.8 4705.5,-1348.8 "/>
<text text-anchor="start" x="4173.5" y="-1333.6" font-family="Times,serif" font-size="14.00">hass</text>
<text text-anchor="start" x="4173.5" y="-1318.6" font-family="Times,serif" font-size="14.00">listener_job : HassJob[[Event[_DataT]], Coroutine[Any, Any, None] | None]</text>
<text text-anchor="start" x="4173.5" y="-1303.6" font-family="Times,serif" font-size="14.00">remove : CALLBACK_TYPE | None</text>
<polyline fill="none" stroke="black" points="4165.5,-1295.8 4705.5,-1295.8 "/>
<text text-anchor="start" x="4433" y="-1280.6" font-family="Times,serif" font-size="14.00"> </text>
</g>
<!-- homeassistant.core.HomeAssistant&#45;&gt;homeassistant.core._OneTimeListener -->
<g id="edge9" class="edge">
<title>homeassistant.core.HomeAssistant&#45;&gt;homeassistant.core._OneTimeListener</title>
<path fill="none" stroke="black" d="M4428.98,-1093.37C4430.79,-1156.89 4432.53,-1217.69 4433.76,-1260.5"/>
<polygon fill="black" stroke="black" points="4433.76,-1260.64 4437.93,-1266.52 4434.11,-1272.63 4429.94,-1266.75 4433.76,-1260.64"/>
<text text-anchor="middle" x="4447" y="-1115.6" font-family="Times,serif" font-size="14.00" fill="green">hass</text>
</g>
<!-- homeassistant.core.ReleaseChannel -->
<g id="node15" class="node">
<title>homeassistant.core.ReleaseChannel</title>
<polygon fill="none" stroke="black" points="6295,-30.5 6295,-99.5 6426,-99.5 6426,-30.5 6295,-30.5"/>
<text text-anchor="start" x="6303" y="-84.3" font-family="Times,serif" font-size="14.00">ReleaseChannel</text>
<polyline fill="none" stroke="black" points="6295,-76.5 6426,-76.5 "/>
<text text-anchor="start" x="6340.5" y="-61.3" font-family="Times,serif" font-size="14.00">name</text>
<polyline fill="none" stroke="black" points="6295,-53.5 6426,-53.5 "/>
<text text-anchor="start" x="6358" y="-38.3" font-family="Times,serif" font-size="14.00"> </text>
</g>
<!-- homeassistant.core.ServiceRegistry -->
<g id="node18" class="node">
<title>homeassistant.core.ServiceRegistry</title>
<polygon fill="none" stroke="black" points="1563.5,-204.9 1563.5,-423.9 3741.5,-423.9 3741.5,-204.9 1563.5,-204.9"/>
<text text-anchor="start" x="2595" y="-408.7" font-family="Times,serif" font-size="14.00">ServiceRegistry</text>
<polyline fill="none" stroke="black" points="1563.5,-400.9 3741.5,-400.9 "/>
<text text-anchor="start" x="2623" y="-385.7" font-family="Times,serif" font-size="14.00">services</text>
<polyline fill="none" stroke="black" points="1563.5,-377.9 3741.5,-377.9 "/>
<text text-anchor="start" x="1571.5" y="-362.7" font-family="Times,serif" font-size="14.00">async_call(domain: str, service: str, service_data: dict[str, Any] | None, blocking: bool, context: Context | None, target: dict[str, Any] | None, return_response: bool): ServiceResponse</text>
<text text-anchor="start" x="1571.5" y="-347.7" font-family="Times,serif" font-size="14.00">async_register(domain: str, service: str, service_func: Callable[[ServiceCall], Coroutine[Any, Any, ServiceResponse | EntityServiceResponse] | ServiceResponse | EntityServiceResponse | None], schema: VolSchemaType | None, supports_response: SupportsResponse, job_type: HassJobType | None): None</text>
<text text-anchor="start" x="1571.5" y="-332.7" font-family="Times,serif" font-size="14.00">async_remove(domain: str, service: str): None</text>
<text text-anchor="start" x="1571.5" y="-317.7" font-family="Times,serif" font-size="14.00">async_services(): dict[str, dict[str, Service]]</text>
<text text-anchor="start" x="1571.5" y="-302.7" font-family="Times,serif" font-size="14.00">async_services_for_domain(domain: str): dict[str, Service]</text>
<text text-anchor="start" x="1571.5" y="-287.7" font-family="Times,serif" font-size="14.00">async_services_internal(): dict[str, dict[str, Service]]</text>
<text text-anchor="start" x="1571.5" y="-272.7" font-family="Times,serif" font-size="14.00">call(domain: str, service: str, service_data: dict[str, Any] | None, blocking: bool, context: Context | None, target: dict[str, Any] | None, return_response: bool): ServiceResponse</text>
<text text-anchor="start" x="1571.5" y="-257.7" font-family="Times,serif" font-size="14.00">has_service(domain: str, service: str): bool</text>
<text text-anchor="start" x="1571.5" y="-242.7" font-family="Times,serif" font-size="14.00">register(domain: str, service: str, service_func: Callable[[ServiceCall], Coroutine[Any, Any, ServiceResponse] | ServiceResponse | None], schema: vol.Schema | None, supports_response: SupportsResponse): None</text>
<text text-anchor="start" x="1571.5" y="-227.7" font-family="Times,serif" font-size="14.00">remove(domain: str, service: str): None</text>
<text text-anchor="start" x="1571.5" y="-212.7" font-family="Times,serif" font-size="14.00">supports_response(domain: str, service: str): SupportsResponse</text>
</g>
<!-- homeassistant.core.ServiceRegistry&#45;&gt;homeassistant.core.HomeAssistant -->
<g id="edge10" class="edge">
<title>homeassistant.core.ServiceRegistry&#45;&gt;homeassistant.core.HomeAssistant</title>
<path fill="none" stroke="black" d="M3052.31,-423.92C3333.87,-500.35 3710.2,-602.5 3996.9,-680.32"/>
<polygon fill="black" stroke="black" points="3997.19,-680.4 4004.03,-678.11 4008.77,-683.54 4001.93,-685.83 3997.19,-680.4"/>
<text text-anchor="middle" x="3254" y="-469.6" font-family="Times,serif" font-size="14.00" fill="green">services</text>
</g>
<!-- homeassistant.core.State&#45;&gt;homeassistant.core.EventStateReportedData -->
<g id="edge11" class="edge">
<title>homeassistant.core.State&#45;&gt;homeassistant.core.EventStateReportedData</title>
<path fill="none" stroke="black" d="M5220.5,-1499.59C5220.5,-1513.46 5220.5,-1526.77 5220.5,-1538.91"/>
<polygon fill="black" stroke="black" points="5220.5,-1539.11 5224.5,-1545.11 5220.5,-1551.11 5216.5,-1545.11 5220.5,-1539.11"/>
<text text-anchor="middle" x="5257" y="-1521.6" font-family="Times,serif" font-size="14.00" fill="green">new_state</text>
</g>
<!-- homeassistant.core.StateMachine -->
<g id="node20" class="node">
<title>homeassistant.core.StateMachine</title>
<polygon fill="none" stroke="black" points="3759.5,-181.5 3759.5,-447.3 5081.5,-447.3 5081.5,-181.5 3759.5,-181.5"/>
<text text-anchor="start" x="4370.5" y="-432.1" font-family="Times,serif" font-size="14.00">StateMachine</text>
<polyline fill="none" stroke="black" points="3759.5,-424.3 5081.5,-424.3 "/>
<polyline fill="none" stroke="black" points="3759.5,-399.5 5081.5,-399.5 "/>
<text text-anchor="start" x="3767.5" y="-384.3" font-family="Times,serif" font-size="14.00">all(domain_filter: str | Iterable[str] | None): list[State]</text>
<text text-anchor="start" x="3767.5" y="-369.3" font-family="Times,serif" font-size="14.00">async_all(domain_filter: str | Iterable[str] | None): list[State]</text>
<text text-anchor="start" x="3767.5" y="-354.3" font-family="Times,serif" font-size="14.00">async_available(entity_id: str): bool</text>
<text text-anchor="start" x="3767.5" y="-339.3" font-family="Times,serif" font-size="14.00">async_entity_ids(domain_filter: str | Iterable[str] | None): list[str]</text>
<text text-anchor="start" x="3767.5" y="-324.3" font-family="Times,serif" font-size="14.00">async_entity_ids_count(domain_filter: str | Iterable[str] | None): int</text>
<text text-anchor="start" x="3767.5" y="-309.3" font-family="Times,serif" font-size="14.00">async_remove(entity_id: str, context: Context | None): bool</text>
<text text-anchor="start" x="3767.5" y="-294.3" font-family="Times,serif" font-size="14.00">async_reserve(entity_id: str): None</text>
<text text-anchor="start" x="3767.5" y="-279.3" font-family="Times,serif" font-size="14.00">async_set(entity_id: str, new_state: str, attributes: Mapping[str, Any] | None, force_update: bool, context: Context | None, state_info: StateInfo | None, timestamp: float | None): None</text>
<text text-anchor="start" x="3767.5" y="-264.3" font-family="Times,serif" font-size="14.00">async_set_internal(entity_id: str, new_state: str, attributes: Mapping[str, Any] | None, force_update: bool, context: Context | None, state_info: StateInfo | None, timestamp: float): None</text>
<text text-anchor="start" x="3767.5" y="-249.3" font-family="Times,serif" font-size="14.00">entity_ids(domain_filter: str | None): list[str]</text>
<text text-anchor="start" x="3767.5" y="-234.3" font-family="Times,serif" font-size="14.00">get(entity_id: str): State | None</text>
<text text-anchor="start" x="3767.5" y="-219.3" font-family="Times,serif" font-size="14.00">is_state(entity_id: str, state: str): bool</text>
<text text-anchor="start" x="3767.5" y="-204.3" font-family="Times,serif" font-size="14.00">remove(entity_id: str): bool</text>
<text text-anchor="start" x="3767.5" y="-189.3" font-family="Times,serif" font-size="14.00">set(entity_id: str, new_state: str, attributes: Mapping[str, Any] | None, force_update: bool, context: Context | None): None</text>
</g>
<!-- homeassistant.core.StateMachine&#45;&gt;homeassistant.core.HomeAssistant -->
<g id="edge12" class="edge">
<title>homeassistant.core.StateMachine&#45;&gt;homeassistant.core.HomeAssistant</title>
<path fill="none" stroke="black" d="M4420.5,-447.49C4420.5,-460.26 4420.5,-473.54 4420.5,-487.14"/>
<polygon fill="black" stroke="black" points="4420.5,-487.17 4424.5,-493.17 4420.5,-499.17 4416.5,-493.17 4420.5,-487.17"/>
<text text-anchor="middle" x="4442.5" y="-469.6" font-family="Times,serif" font-size="14.00" fill="green">states</text>
</g>
<!-- homeassistant.core.States -->
<g id="node21" class="node">
<title>homeassistant.core.States</title>
<polygon fill="none" stroke="black" points="6444.5,-14.6 6444.5,-115.4 6838.5,-115.4 6838.5,-14.6 6444.5,-14.6"/>
<text text-anchor="start" x="6618.5" y="-100.2" font-family="Times,serif" font-size="14.00">States</text>
<polyline fill="none" stroke="black" points="6444.5,-92.4 6838.5,-92.4 "/>
<polyline fill="none" stroke="black" points="6444.5,-67.6 6838.5,-67.6 "/>
<text text-anchor="start" x="6452.5" y="-52.4" font-family="Times,serif" font-size="14.00">domain_entity_ids(key: str): KeysView[str] | tuple[()]</text>
<text text-anchor="start" x="6452.5" y="-37.4" font-family="Times,serif" font-size="14.00">domain_states(key: str): ValuesView[State] | tuple[()]</text>
<text text-anchor="start" x="6452.5" y="-22.4" font-family="Times,serif" font-size="14.00">values(): ValuesView[State]</text>
</g>
<!-- homeassistant.core.SupportsResponse -->
<g id="node22" class="node">
<title>homeassistant.core.SupportsResponse</title>
<polygon fill="none" stroke="black" points="5622.5,-30.5 5622.5,-99.5 5772.5,-99.5 5772.5,-30.5 5622.5,-30.5"/>
<text text-anchor="start" x="5630.5" y="-84.3" font-family="Times,serif" font-size="14.00">SupportsResponse</text>
<polyline fill="none" stroke="black" points="5622.5,-76.5 5772.5,-76.5 "/>
<text text-anchor="start" x="5677.5" y="-61.3" font-family="Times,serif" font-size="14.00">name</text>
<polyline fill="none" stroke="black" points="5622.5,-53.5 5772.5,-53.5 "/>
<text text-anchor="start" x="5695" y="-38.3" font-family="Times,serif" font-size="14.00"> </text>
</g>
<!-- homeassistant.core.SupportsResponse&#45;&gt;homeassistant.core.Service -->
<g id="edge17" class="edge">
<title>homeassistant.core.SupportsResponse&#45;&gt;homeassistant.core.Service</title>
<path fill="none" stroke="black" d="M5692.74,-99.62C5687.21,-138.76 5677.95,-204.16 5671.14,-252.34"/>
<polygon fill="none" stroke="black" points="5671.1,-252.63 5674.22,-259.13 5669.42,-264.51 5666.3,-258.01 5671.1,-252.63"/>
<text text-anchor="middle" x="5753" y="-151.8" font-family="Times,serif" font-size="14.00" fill="green">supports_response</text>
</g>
</g>
</svg>
